HIERARCHY
ROOT Hips
{
  OFFSET -33.9132 29.2015 117.021
  CHANNELS 6 Xposition Yposition Zposition Zrotation Xrotation Yrotation
  JOINT LeftUpLeg
  {
    OFFSET 8.64259 1.95398 -2.38835
    CHANNELS 3 Zrotation Xrotation Yrotation
    JOINT LeftLeg
    {
      OFFSET 43.7702 0 0
      CHANNELS 3 Zrotation Xrotation Yrotation
      JOINT LeftFoot
      {
        OFFSET 40.6238 0 0
        CHANNELS 3 Zrotation Xrotation Yrotation
        JOINT LeftToeBase
        {
          OFFSET 12.7242 0 0
          CHANNELS 3 Zrotation Xrotation Yrotation
          End Site
          {
            OFFSET 0 0 0
          }
        }
      }
    }
  }
  JOINT RightUpLeg
  {
    OFFSET -8.2249 1.95398 -2.59336
    CHANNELS 3 Zrotation Xrotation Yrotation
    JOINT RightLeg
    {
      OFFSET 43.5653 0 0
      CHANNELS 3 Zrotation Xrotation Yrotation
      JOINT RightFoot
      {
        OFFSET 40.6238 0 0
        CHANNELS 3 Zrotation Xrotation Yrotation
        JOINT RightToeBase
        {
          OFFSET 12.7242 0 0
          CHANNELS 3 Zrotation Xrotation Yrotation
          End Site
          {
            OFFSET 0 0 0
          }
        }
      }
    }
  }
  JOINT Spine
  {
    OFFSET 0.165834 0.87714 6.61349
    CHANNELS 3 Zrotation Xrotation Yrotation
    JOINT Spine1
    {
      OFFSET 7.38963 1.71661e-005 0
      CHANNELS 3 Zrotation Xrotation Yrotation
      JOINT Spine2
      {
        OFFSET 11.9445 1.14441e-005 0
        CHANNELS 3 Zrotation Xrotation Yrotation
        JOINT Spine3
        {
          OFFSET 14.7254 4.19617e-005 0
          CHANNELS 3 Zrotation Xrotation Yrotation
          JOINT Spine4
          {
            OFFSET 10.9679 0 0
            CHANNELS 3 Zrotation Xrotation Yrotation
            JOINT RightShoulder
            {
              OFFSET 2.46616 -1.6653 3.69651
              CHANNELS 3 Zrotation Xrotation Yrotation
              JOINT RightArm
              {
                OFFSET 13.0012 0 0
                CHANNELS 3 Zrotation Xrotation Yrotation
                JOINT RightForeArm
                {
                  OFFSET 28.7848 1.62311e-005 0
                  CHANNELS 3 Zrotation Xrotation Yrotation
                  JOINT RightHand
                  {
                    OFFSET 26.5688 1.62095e-005 0
                    CHANNELS 3 Zrotation Xrotation Yrotation
                    End Site
                    {
                      OFFSET 0 0 0
                    }
                  }
                }
              }
            }
            JOINT LeftShoulder
            {
              OFFSET 2.38034 -1.29275 -3.7523
              CHANNELS 3 Zrotation Xrotation Yrotation
              JOINT LeftArm
              {
                OFFSET 16.3182 6.07031e-005 0
                CHANNELS 3 Zrotation Xrotation Yrotation
                JOINT LeftForeArm
                {
                  OFFSET 27.0901 0 0
                  CHANNELS 3 Zrotation Xrotation Yrotation
                  JOINT LeftHand
                  {
                    OFFSET 24.5451 1.51738e-005 0
                    CHANNELS 3 Zrotation Xrotation Yrotation
                    End Site
                    {
                      OFFSET 0 0 0
                    }
                  }
                }
              }
            }
            JOINT Neck
            {
              OFFSET 5.0226 -0.0266342 0
              CHANNELS 3 Zrotation Xrotation Yrotation
              JOINT Head
              {
                OFFSET 6.69364 2.86102e-005 0
                CHANNELS 3 Zrotation Xrotation Yrotation
                End Site
                {
                  OFFSET 0 0 0
                }
              }
            }
          }
        }
      }
    }
  }
}
MOTION
Frames:	16
Frame Time:	0.0416667
-234.483 98.0915 206.581 91.5414 15.5682 88.4369 -175.484 -2.05579 88.7839 -5.29531 -3.60184 0.920312 67.556 4.97512 -1.96366 19.3585 -9.67264 9.43392 175.252 3.92854 89.7539 -13.9176 -24.6468 -1.83664 65.9563 -3.41815 0.647074 22.9955 2.84927 -0.497888 -0.190648 7.14097 -90.1301 12.5915 -0.440684 -0.208557 0.920646 -0.449454 -0.188964 -21.6148 -0.35766 -0.331368 -1.60215 -0.357632 -0.331363 94.181 -24.5626 -99.9213 55.4541 2.22705 -5.5354 -4.81793 -34.1815 -5.19436 -18.3343 1.79474 -16.744 -84.7044 -41.533 85.5257 -32.3892 -10.6632 -2.3476 -10.5763 15.5575 -0.0162541 6.19275 -1.34753 -21.5248 -7.66237 -32.8989 -24.2808 -1.86187 -31.1185 -7.25008 
-234.311 98.0391 206.649 91.8579 15.9515 88.5078 -175.305 -2.381 89.2172 -5.30132 -3.77323 0.968643 67.6842 4.76298 -3.45647 18.5464 -8.84868 7.16321 175.257 2.96423 89.899 -12.5943 -20.2435 -1.6146 67.276 -3.8831 3.08383 21.0791 2.7328 2.61264 -0.196957 7.19471 -90.1391 12.484 -0.457068 -0.225198 0.813141 -0.466538 -0.204864 -21.7223 -0.368238 -0.352144 -1.70966 -0.368259 -0.35216 94.1557 -24.8903 -99.8763 55.278 2.20459 -5.80215 -4.84365 -34.6415 -5.20647 -18.1002 1.75567 -16.6868 -84.6836 -41.4327 85.5451 -32.504 -10.1309 -1.9828 -10.4965 19.3112 -0.0664757 4.55902 -0.955713 -20.1999 -7.66293 -32.8912 -24.6418 -1.92437 -31.0821 -7.13407 
-234.06 98.0608 206.713 91.5531 16.6624 88.5138 -175.148 -2.12181 89.3501 -5.33947 -2.81518 0.764629 67.7819 4.90484 -3.05203 17.8584 -9.0858 6.87633 175.264 3.32149 89.9414 -13.3508 -23.272 -1.71621 66.4465 -3.72171 0.931775 22.9013 2.78716 -0.143824 -0.205462 7.15995 -90.153 12.5534 -0.481073 -0.249763 0.882577 -0.491604 -0.228352 -21.6529 -0.383779 -0.382803 -1.64024 -0.383783 -0.382802 94.1735 -24.7308 -99.8863 55.6415 2.0275 -5.83125 -4.70774 -32.1702 -5.14411 -19.5849 1.6393 -15.6354 -84.9552 -41.8642 85.1582 -32.2048 -10.3768 -2.10554 -10.5316 17.8923 -0.0072309 4.53526 -1.01431 -21.0093 -7.55403 -32.8849 -24.41 -1.75734 -31.0746 -7.1938 
-233.685 97.9914 206.806 91.4158 17.1546 88.4632 -174.945 -2.07632 89.5512 -5.42453 -1.85682 0.556173 67.8047 5.00886 -2.77313 17.7754 -9.03482 6.70678 175.238 2.97183 89.9569 -12.8839 -22.3932 -1.63112 67.1371 -4.33365 0.235609 21.7774 2.58352 2.11306 -0.211658 7.1501 -90.1723 12.573 -0.502524 -0.285646 0.902166 -0.514634 -0.26326 -21.6333 -0.393472 -0.423477 -1.62061 -0.393447 -0.423474 94.3407 -24.1184 -99.7049 56.9258 1.48467 -5.72955 -4.64414 -30.9726 -5.11835 -24.1392 1.47414 -12.1938 -84.8505 -42.5815 85.441 -31.5289 -9.85949 -1.68207 -10.5512 16.6088 -0.680871 4.14233 -0.910087 -20.1619 -6.26831 -32.9137 -23.6361 -2.85065 -30.8433 -6.81156 
-233.202 98.0234 207.12 91.0308 18.0505 88.8768 -174.361 -1.77677 90.4835 -5.57037 -0.883276 0.227846 68.1688 5.09833 -3.74738 17.6736 -9.29591 7.04887 175.636 3.3239 90.6799 -13.6054 -21.0637 -1.65365 67.0246 -3.86699 1.77866 22.8598 3.14115 -1.21477 -0.202192 7.13709 -90.1769 12.599 -0.485885 -0.296773 0.928161 -0.498523 -0.2751 -21.6072 -0.374238 -0.429082 -1.59455 -0.374287 -0.429095 94.2838 -24.6005 -99.6837 55.6027 2.20214 -5.42632 -4.78801 -33.6446 -5.18058 -19.8147 2.0574 -17.3738 -85.0114 -41.7705 85.05 -32.2985 -10.152 -2.10781 -10.6687 15.7624 -0.162711 4.2366 -0.90545 -19.7726 -6.66791 -33.0864 -24.7422 -2.01798 -31.0423 -6.51564 
-232.506 98.0136 207.4 91.5436 18.7949 88.698 -173.867 -2.4441 91.0329 -5.74325 0.303466 0.00702653 68.5031 5.42271 -3.47641 18.9515 -8.85611 7.59296 175.435 2.34219 90.8467 -13.5305 -20.6681 -1.38655 67.6258 -4.48563 0.587734 22.0747 3.06462 0.200526 -0.161658 7.19828 -90.1661 12.4768 -0.400127 -0.28559 0.8059 -0.412308 -0.267703 -21.7293 -0.295788 -0.392641 -1.71667 -0.295799 -0.392637 94.5372 -24.4544 -99.1674 55.9745 2.01573 -5.47582 -4.74068 -32.7808 -5.15934 -17.2523 1.58728 -16.1033 -85.1663 -42.4203 84.8953 -31.3729 -10.1247 -2.23948 -10.7994 15.4251 -0.0572996 5.04252 -0.976281 -19.0203 -6.62797 -33.285 -24.6698 -2.045 -31.2363 -6.47465 
-231.59 97.9361 207.719 92.7678 20.1421 87.8345 -173.328 -3.55726 91.5163 -6.51284 2.06277 -0.270846 68.8339 5.76217 -4.29791 20.0206 -9.02975 9.01801 174.958 0.804295 90.797 -14.1146 -19.7496 -1.15201 68.6597 -5.10463 0.601735 21.8439 3.2983 -0.183837 -0.167932 7.35112 -90.047 12.1718 -0.355945 -0.0535282 0.500947 -0.357966 -0.0378122 -22.0345 -0.323388 -0.158028 -2.0219 -0.323415 -0.158034 94.1695 -24.9709 -99.8224 55.9131 2.16638 -5.15824 -4.69632 -31.9572 -5.14009 -17.5326 1.79551 -17.2731 -84.9058 -41.976 85.257 -31.067 -9.92619 -2.39475 -10.8935 14.3529 -0.142363 4.9112 -1.0257 -19.8877 -7.17879 -32.9536 -24.8121 -1.87372 -31.0262 -6.85197 
-230.481 97.7879 208.288 93.9318 21.916 87.0726 -172.833 -4.39546 92.1586 -7.37532 4.25008 -0.286526 69.4446 6.91985 -3.52301 19.8785 -8.41292 7.7717 174.749 -0.194465 90.9003 -15.3136 -17.8928 -0.936796 69.7845 -5.6074 0.552178 21.8283 3.30573 -0.174256 -0.150581 7.47098 -89.9556 11.932 -0.278531 0.118471 0.261072 -0.273029 0.130607 -22.2743 -0.301252 0.0292848 -2.26168 -0.301225 0.0292859 93.7847 -25.3569 -100.54 56.5194 1.95082 -5.01723 -4.78842 -33.6526 -5.18088 -20.5638 1.65581 -14.6741 -85.1536 -42.2808 84.8944 -29.8125 -10.4021 -2.43635 -10.9653 13.0057 -0.0112982 5.7455 -1.28719 -21.5486 -7.80725 -32.2195 -23.4692 -2.05553 -30.5275 -7.99055 
-229.55 97.2099 208.798 94.4533 24.1151 86.2543 -172.91 -3.44527 92.2364 -10.4274 5.30332 0.0635008 70.9624 9.16022 -3.74769 23.3713 -7.54678 10.0096 174.001 0.180362 90.5721 -17.7622 -16.3806 -0.256126 72.0565 -7.06827 -1.62827 21.0914 2.15321 4.384 -0.0820566 7.51522 -89.8832 11.8435 -0.108213 0.24443 0.172537 -0.0973701 0.248949 -22.3625 -0.176667 0.2006 -2.34987 -0.176685 0.200602 93.3989 -25.5507 -101.314 56.4431 1.93461 -5.14482 -4.59221 -29.9714 -5.09723 -21.0469 1.80042 -15.2096 -85.3305 -42.5684 84.6478 -28.7277 -10.5633 -1.98971 -10.9976 12.7387 -0.0164372 7.30046 -1.3934 -19.9728 -7.07351 -29.215 -18.9683 -2.45968 -27.6956 -8.22103 
-228.787 96.7402 209.071 95.5823 27.7823 85.2174 -173.926 3.20426 93.4525 -24.9287 7.79433 0.804554 71.1964 8.70747 -3.85382 24.2751 -6.70033 9.39364 172.466 -0.17889 89.6839 -19.8153 -13.721 1.16227 74.4395 -7.40824 0.601787 21.259 3.12305 1.18208 -0.0102168 7.65212 -89.9214 11.5696 0.0163869 0.154646 -0.101339 0.0232322 0.153759 -22.6365 -0.0308051 0.152428 -2.62381 -0.0308492 0.152414 93.1001 -25.4401 -101.997 55.548 2.09373 -5.76738 -4.4851 -27.8488 -5.05584 -20.6879 1.86569 -15.8746 -85.2991 -42.9912 84.7661 -28.4339 -11.0545 -1.98524 -10.8607 12.2134 -0.0161098 6.96727 -1.40562 -20.8847 -4.97076 -23.2613 -12.9616 -3.48314 -21.8825 -7.16144 
-227.834 96.6934 208.998 96.3151 30.8421 83.8195 -174.093 12.4547 90.7927 -38.5654 10.3809 0.612255 68.8811 6.26959 -2.78496 20.5048 -9.20923 9.86753 172.047 -1.84406 89.4906 -18.7442 -10.2973 1.25549 74.7778 -7.70202 -0.509701 21.6438 1.72341 5.00025 0.262906 7.78379 -89.9375 11.3062 0.552226 0.0697884 -0.364679 0.554758 0.0454059 -22.9004 0.505719 0.232533 -2.88778 0.505718 0.232528 92.4496 -25.7645 -103.282 52.6397 3.12383 -6.56482 -4.6277 -30.6565 -5.11136 -16.4082 2.1041 -20.3238 -85.0543 -42.9013 85.1548 -28.9283 -11.779 -2.1976 -10.6066 12.5736 -0.015675 8.41587 -1.4451 -19.1815 -3.29737 -16.4429 -8.24759 -4.94313 -15.3584 -5.96602 
-226.803 96.8223 208.133 96.1958 32.68 81.3443 -174.219 17.2504 87.6147 -37.3702 13.0055 -1.05691 66.4801 4.55625 -2.19772 24.6487 -7.42862 11.2756 171.131 -2.24045 87.145 -19.1185 -9.0771 0.757674 75.3498 -7.80695 -0.118413 23.2002 1.40386 3.89257 0.615356 7.85679 -89.7037 11.1587 1.3624 0.456985 -0.511599 1.38121 0.396557 -23.0506 1.16207 0.845352 -3.03794 1.16207 0.845354 92.1833 -25.5487 -103.933 52.668 2.45907 -8.38063 -4.5922 -29.9697 -5.09725 -16.7947 2.3437 -21.6551 -85.2536 -42.6729 84.7918 -28.2795 -12.0761 0.245159 -10.4953 12.7328 -0.0151263 5.51284 -1.16987 -20.5869 -3.1176 -10.8071 -5.33524 -4.45938 -10.0737 -4.24205 
-225.396 96.9399 206.552 95.6519 34.9169 79.5503 -175.559 20.2146 84.072 -28.2459 12.5958 -2.03792 66.3118 4.13235 -3.54658 23.084 -7.98275 10.5033 170.3 -3.25291 85.1675 -17.8152 -6.93012 0.317404 75.8291 -8.13237 -0.139954 24.2108 0.847691 4.32849 0.82484 7.90743 -89.5616 11.0538 1.84527 0.694795 -0.615959 1.87409 0.612881 -23.1576 1.55113 1.21733 -3.14492 1.55116 1.21734 92.4651 -24.7688 -103.61 53.2668 0.85083 -11.9502 -4.54749 -29.0961 -5.07991 -18.4856 2.77259 -22.7654 -85.3103 -43.6454 84.8504 -26.7598 -13.2456 2.55986 -10.1478 13.5137 -0.0145746 4.78311 -0.997787 -20 -2.94725 -7.58084 -1.65762 -3.79717 -7.3059 -4.0275 
-223.36 96.5462 204.409 95.3356 35.9394 79.0545 -176.944 20.8049 82.2734 -14.7513 9.01627 -2.26927 65.4227 4.81616 -0.916097 25.6193 -4.99124 7.5473 169.948 -4.70534 84.365 -17.8265 -5.77945 -0.106147 77.0045 -8.85298 -0.255984 25.9204 0.247606 3.89877 1.07297 7.99645 -89.6067 10.8765 2.31813 0.564656 -0.792453 2.34073 0.462017 -23.3402 2.04122 1.23548 -3.32751 2.04122 1.23547 92.8135 -23.4171 -103.337 53.3575 -0.661178 -15.7622 -4.55969 -29.3345 -5.08451 -19.6354 2.95675 -22.7451 -85.0432 -45.2962 85.5274 -25.7653 -12.8566 5.60268 -10.3495 12.8729 -0.0139605 4.4985 -0.876477 -18.4383 -1.95534 -5.81745 1.94066 -3.9413 -5.96432 -4.09316 
-220.391 95.7949 201.589 95.8564 36.1043 79.0722 -178.136 21.1451 82.3295 -7.52757 4.7158 -2.65878 66.6248 6.71681 1.99829 20.559 -8.58477 8.77875 170.058 -8.05115 84.6138 -17.4848 -5.3115 -0.844594 78.1912 -10.0382 -1.85553 26.8893 -0.330222 4.55829 1.27399 8.04197 -89.6341 10.7865 2.70563 0.476339 -0.881713 2.72396 0.356701 -23.4354 2.43732 1.2679 -3.42277 2.4373 1.2679 91.1486 -25.6137 -106.124 50.758 -0.141939 -18.3531 -4.47388 -27.6256 -5.0529 -21.2385 3.48174 -24.2248 -85.6417 -45.201 84.56 -26.3545 -13.3321 9.06473 -10.2358 13.4557 -0.0135005 3.94963 -0.757703 -17.8741 -3.58827 -4.521 1.85456 -1.69736 -4.71883 -2.90592 
-216.412 94.6096 197.879 95.4547 34.9662 80.1383 -177.94 21.9575 83.2188 -8.05789 -1.80512 -2.49583 67.1958 6.21122 -1.95136 16.2475 -10.4436 7.543 169.145 -11.7863 84.0616 -16.3971 -5.85622 -0.84965 79.3628 -11.3402 -2.07165 29.4685 -1.47072 4.95032 1.40019 8.05443 -89.6841 10.7629 2.93395 0.357173 -0.904786 2.94684 0.227585 -23.4628 2.69086 1.22305 -3.45018 2.69086 1.22303 91.0695 -25.0604 -106.513 51.0568 -1.81711 -22.2869 -4.41077 -26.3348 -5.03123 -21.4327 3.59656 -24.6187 -85.4354 -45.8476 84.9863 -27.0985 -14.0078 10.6858 -10.025 14.5308 -0.0132149 3.72619 -0.647594 -16.8551 -2.46648 -3.22242 3.26829 -2.1845 -3.59814 -2.91126 
